RBDS03runT35_grf
version=1
nRows=24
nColumns=19
inDegrees=no
endheader
time	ground_force_r_vx	ground_force_r_vy	ground_force_r_vz	ground_force_r_px	ground_force_r_py	ground_force_r_pz	ground_force_r_mx	ground_force_r_my	ground_force_r_mz	ground_force_l_vx	ground_force_l_vy	ground_force_l_vz	ground_force_l_px	ground_force_l_py	ground_force_l_pz	ground_force_l_mx	ground_force_l_my	ground_force_l_mz
     22.49800000	    153.88849734	    362.87124078	     17.38002849	      1.99823157	      0.00000000	      1.10977699	     -0.00000000	      0.28120951	     -0.00000000	      0.00000000	      0.00000000	      0.00000000	      0.00000000	      0.00000000	      0.00000000	      0.00000000	      0.00000000	      0.00000000
     22.49900000	    150.06735766	    342.97085889	     17.07374797	      1.99671836	      0.00000000	      1.11015843	     -0.00000000	      0.10441045	     -0.00000000	      0.00000000	      0.00000000	      0.00000000	      0.00000000	      0.00000000	      0.00000000	      0.00000000	      0.00000000	      0.00000000
     22.50000000	    146.24621797	    323.07047699	     16.76746744	      1.99520514	      0.00000000	      1.11053987	     -0.00000000	     -0.07238861	     -0.00000000	      0.00000000	      0.00000000	      0.00000000	      0.00000000	      0.00000000	      0.00000000	      0.00000000	      0.00000000	      0.00000000
     22.50100000	    142.33533509	    304.47481300	     16.41865734	      1.99387688	      0.00000000	      1.11093254	     -0.00000000	     -0.23649151	     -0.00000000	      0.00000000	      0.00000000	      0.00000000	      0.00000000	      0.00000000	      0.00000000	      0.00000000	      0.00000000	      0.00000000
     22.50200000	    138.42445221	    285.87914901	     16.06984723	      1.99254862	      0.00000000	      1.11132521	     -0.00000000	     -0.40059440	     -0.00000000	      0.00000000	      0.00000000	      0.00000000	      0.00000000	      0.00000000	      0.00000000	      0.00000000	      0.00000000	      0.00000000
     22.50300000	    134.51356932	    267.28348502	     15.72103713	      1.99122036	      0.00000000	      1.11171788	     -0.00000000	     -0.56469730	     -0.00000000	      0.00000000	      0.00000000	      0.00000000	      0.00000000	      0.00000000	      0.00000000	      0.00000000	      0.00000000	      0.00000000
     22.50400000	    130.60707809	    249.64752804	     15.35332846	      1.99001054	      0.00000000	      1.11211239	     -0.00000000	     -0.71985489	     -0.00000000	      0.00000000	      0.00000000	      0.00000000	      0.00000000	      0.00000000	      0.00000000	      0.00000000	      0.00000000	      0.00000000
     22.50500000	    126.70278268	    232.49142455	     14.97617051	      1.98885996	      0.00000000	      1.11250781	     -0.00000000	     -0.87053982	     -0.00000000	      0.00000000	      0.00000000	      0.00000000	      0.00000000	      0.00000000	      0.00000000	      0.00000000	      0.00000000	      0.00000000
     22.50600000	    122.79848727	    215.33532107	     14.59901255	      1.98770937	      0.00000000	      1.11290323	     -0.00000000	     -1.02122475	     -0.00000000	      0.00000000	      0.00000000	      0.00000000	      0.00000000	      0.00000000	      0.00000000	      0.00000000	      0.00000000	      0.00000000
     22.50700000	    118.92677970	    198.69363904	     14.21716362	      1.98661471	      0.00000000	      1.11329669	     -0.00000000	     -1.16725819	     -0.00000000	      0.00000000	      0.00000000	      0.00000000	      0.00000000	      0.00000000	      0.00000000	      0.00000000	      0.00000000	      0.00000000
     22.50800000	    115.12024782	    183.08079993	     13.82593272	      1.98563192	      0.00000000	      1.11368622	     -0.00000000	     -1.30398864	     -0.00000000	      0.00000000	      0.00000000	      0.00000000	      0.00000000	      0.00000000	      0.00000000	      0.00000000	      0.00000000	      0.00000000
     22.50900000	    111.31371594	    167.46796081	     13.43470183	      1.98464913	      0.00000000	      1.11407575	     -0.00000000	     -1.44071909	     -0.00000000	      0.00000000	      0.00000000	      0.00000000	      0.00000000	      0.00000000	      0.00000000	      0.00000000	      0.00000000	      0.00000000
     22.51000000	    107.50718407	    151.85512169	     13.04347093	      1.98366634	      0.00000000	      1.11446528	     -0.00000000	     -1.57744954	     -0.00000000	      0.00000000	      0.00000000	      0.00000000	      0.00000000	      0.00000000	      0.00000000	      0.00000000	      0.00000000	      0.00000000
     22.51100000	    103.88124191	    137.85567184	     12.65190851	      1.98283932	      0.00000000	      1.11484050	     -0.00000000	     -1.69988232	     -0.00000000	      0.00000000	      0.00000000	      0.00000000	      0.00000000	      0.00000000	      0.00000000	      0.00000000	      0.00000000	      0.00000000
     22.51200000	    100.25529976	    123.85622199	     12.26034609	      1.98201231	      0.00000000	      1.11521573	     -0.00000000	     -1.82231510	     -0.00000000	      0.00000000	      0.00000000	      0.00000000	      0.00000000	      0.00000000	      0.00000000	      0.00000000	      0.00000000	      0.00000000
     22.51300000	     96.62935760	    109.85677213	     11.86878367	      1.98118529	      0.00000000	      1.11559096	     -0.00000000	     -1.94474788	     -0.00000000	      0.00000000	      0.00000000	      0.00000000	      0.00000000	      0.00000000	      0.00000000	      0.00000000	      0.00000000	      0.00000000
     22.51400000	     93.17152475	     96.95627839	     11.48541184	      1.98045303	      0.00000000	      1.11595147	     -0.00000000	     -2.05755790	     -0.00000000	      0.00000000	      0.00000000	      0.00000000	      0.00000000	      0.00000000	      0.00000000	      0.00000000	      0.00000000	      0.00000000
     22.51500000	     89.79774655	     84.60526271	     11.10613531	      1.97976814	      0.00000000	      1.11630463	     -0.00000000	     -2.16555656	     -0.00000000	      0.00000000	      0.00000000	      0.00000000	      0.00000000	      0.00000000	      0.00000000	      0.00000000	      0.00000000	      0.00000000
     22.51600000	     86.42396835	     72.25424703	     10.72685877	      1.97908326	      0.00000000	      1.11665779	     -0.00000000	     -2.27355521	     -0.00000000	      0.00000000	      0.00000000	      0.00000000	      0.00000000	      0.00000000	      0.00000000	      0.00000000	      0.00000000	      0.00000000
     22.51700000	     75.75730460	     57.61821292	      9.42660698	      1.78076400	      0.00000000	      1.00520390	     -0.00000000	     -2.11099888	     -0.00000000	      0.00000000	      0.00000000	      0.00000000	      0.00000000	      0.00000000	      0.00000000	      0.00000000	      0.00000000	      0.00000000
     22.51800000	     50.50486973	     38.41214195	      6.28440465	      1.18717600	      0.00000000	      0.67013594	     -0.00000000	     -1.40733259	     -0.00000000	      0.00000000	      0.00000000	      0.00000000	      0.00000000	      0.00000000	      0.00000000	      0.00000000	      0.00000000	      0.00000000
     22.51900000	     25.25243487	     19.20607097	      3.14220233	      0.59358800	      0.00000000	      0.33506797	     -0.00000000	     -0.70366629	     -0.00000000	      0.00000000	      0.00000000	      0.00000000	      0.00000000	      0.00000000	      0.00000000	      0.00000000	      0.00000000	      0.00000000
     22.52000000	      0.00000000	      0.00000000	      0.00000000	      0.00000000	      0.00000000	      0.00000000	     -0.00000000	     -0.00000000	     -0.00000000	      0.00000000	      0.00000000	      0.00000000	      0.00000000	      0.00000000	      0.00000000	      0.00000000	      0.00000000	      0.00000000
     22.52100000	      0.00000000	      0.00000000	      0.00000000	      0.00000000	      0.00000000	      0.00000000	      0.00000000	      0.00000000	      0.00000000	      0.00000000	      0.00000000	      0.00000000	      0.00000000	      0.00000000	      0.00000000	      0.00000000	      0.00000000	      0.00000000
